<?xml version="1.0" encoding="utf-8"?>
<!-- Generator: Adobe Illustrator 19.2.1, SVG Export Plug-In . SVG Version: 6.00 Build 0)  -->
<svg version="1.1" id="Layer_1" xmlns="http://www.w3.org/2000/svg" xmlns:xlink="http://www.w3.org/1999/xlink" x="0px" y="0px"
	 viewBox="0 0 170 100" style="enable-background:new 0 0 170 100;" xml:space="preserve">
<style type="text/css">
	.st0{fill:#8000FF;}
	.st1{fill:#4056F4;}
	.st2{fill:#6666FF;}
</style>
<path class="st0" d="M6.6,34.8V3.6h12.2c9,0,14.1,6.8,14.1,15.7c0,8.8-5.1,15.5-14.1,15.5H6.6z M13.2,28.8h5.6c5,0,7.5-4.4,7.5-9.5
	c0-5.2-2.5-9.6-7.5-9.6h-5.6V28.8z"/>
<path class="st0" d="M74.9,3.6h23.5v6H90v25.2h-6.7V9.6h-8.4V3.6z"/>
<path class="st1" d="M6.6,73V41.8h12.2c9,0,14.1,6.8,14.1,15.7c0,8.8-5.1,15.5-14.1,15.5H6.6z M13.2,67h5.6c5,0,7.5-4.4,7.5-9.5
	c0-5.2-2.5-9.6-7.5-9.6h-5.6V67z"/>
<path class="st1" d="M113.8,73V41.8H126c9,0,14.1,6.8,14.1,15.7c0,8.8-5.1,15.5-14.1,15.5H113.8z M120.4,67h5.6c5,0,7.5-4.4,7.5-9.5
	c0-5.2-2.5-9.6-7.5-9.6h-5.6V67z"/>
<path class="st1" d="M145.7,41.8h6.6v25.3H164V73h-18.3V41.8z"/>
<circle class="st0" cx="54.3" cy="19.8" r="16.1"/>
<circle class="st1" cx="54.3" cy="57.4" r="16.1"/>
<circle class="st1" cx="91.7" cy="57.4" r="16.1"/>
<g>
	<path class="st2" d="M14,89.3H9.4l-1.1,3H5.8l4.6-12.4h2.5l4.6,12.4h-2.4L14,89.3z M10.1,87.2h3.1l-1.6-4.7L10.1,87.2z"/>
	<path class="st2" d="M29,91.1c-0.5,0.8-1.5,1.3-2.6,1.3c-2.2,0-4.1-1.7-4.1-4.4c0-2.7,1.9-4.4,4.1-4.4c1.1,0,2.2,0.5,2.6,1.3v-5.7
		h2.2v13H29V91.1z M26.7,85.8c-1.2,0-2.2,0.9-2.2,2.3c0,1.4,1,2.3,2.2,2.3c1.2,0,2.3-0.9,2.3-2.3C28.9,86.6,27.8,85.8,26.7,85.8z"/>
	<path class="st2" d="M33.1,88c0-2.6,2-4.4,4.4-4.4c2.4,0,4.4,1.7,4.4,4.4c0,2.6-2,4.4-4.4,4.4C35.1,92.4,33.1,90.7,33.1,88z
		 M39.7,88c0-1.3-1-2.2-2.2-2.2s-2.2,0.9-2.2,2.2c0,1.4,1,2.3,2.2,2.3S39.7,89.4,39.7,88z"/>
	<path class="st2" d="M46.6,83.8h1.8v1.8h-1.8v6.6h-2.2v-6.6h-1.5v-1.8h1.5v-3.2h2.2V83.8z"/>
	<path class="st2" d="M60.4,91.1c-0.5,0.8-1.5,1.3-2.6,1.3c-2.2,0-4.1-1.7-4.1-4.4c0-2.7,1.9-4.4,4.1-4.4c1.1,0,2.2,0.5,2.6,1.3
		v-5.7h2.2v13h-2.2V91.1z M58.1,85.8c-1.2,0-2.2,0.9-2.2,2.3c0,1.4,1,2.3,2.2,2.3c1.2,0,2.3-0.9,2.3-2.3
		C60.4,86.6,59.3,85.8,58.1,85.8z"/>
	<path class="st2" d="M64.6,88c0-2.6,2-4.4,4.4-4.4c2.4,0,4.4,1.7,4.4,4.4c0,2.6-2,4.4-4.4,4.4C66.5,92.4,64.6,90.7,64.6,88z
		 M71.1,88c0-1.3-1-2.2-2.2-2.2s-2.2,0.9-2.2,2.2c0,1.4,1,2.3,2.2,2.3S71.1,89.4,71.1,88z"/>
	<path class="st2" d="M74.7,88c0-2.6,2-4.4,4.4-4.4c2.4,0,4.4,1.7,4.4,4.4c0,2.6-2,4.4-4.4,4.4C76.7,92.4,74.7,90.7,74.7,88z
		 M81.3,88c0-1.3-1-2.2-2.2-2.2s-2.2,0.9-2.2,2.2c0,1.4,1,2.3,2.2,2.3S81.3,89.4,81.3,88z"/>
	<path class="st2" d="M91.7,91.1c-0.5,0.8-1.5,1.3-2.6,1.3c-2.2,0-4.1-1.7-4.1-4.4c0-2.7,1.9-4.4,4.1-4.4c1.1,0,2.2,0.5,2.6,1.3
		v-5.7h2.2v13h-2.2V91.1z M89.4,85.8c-1.2,0-2.2,0.9-2.2,2.3c0,1.4,1,2.3,2.2,2.3c1.2,0,2.3-0.9,2.3-2.3
		C91.7,86.6,90.6,85.8,89.4,85.8z"/>
	<path class="st2" d="M96.4,79.3h2.2v13h-2.2V79.3z"/>
	<path class="st2" d="M109.1,88.8h-6.4c0.1,1.1,1.1,1.8,2.3,1.8c0.8,0,1.7-0.4,2.1-1.1c0.5,0.3,1.1,0.6,1.7,0.9
		c-0.8,1.4-2.4,2-3.9,2c-2.4,0-4.4-1.8-4.4-4.4c0-2.6,2-4.4,4.4-4.4s4.3,1.7,4.3,4.4C109.2,88.2,109.1,88.6,109.1,88.8z M107,87.3
		c-0.2-1.2-1-1.8-2.1-1.8c-1.2,0-2.1,0.6-2.2,1.8H107z"/>
	<path class="st2" d="M121.9,91.2c-0.5,0.9-1.8,1.2-2.6,1.2c-2.2,0-4.3-1.7-4.3-4.4c0-2.7,2.1-4.4,4.3-4.4c0.8,0,2,0.3,2.6,1.2v-1
		h2.2v8.4h-2.2V91.2z M119.6,90.3c1.2,0,2.3-0.8,2.3-2.3c0-1.5-1.2-2.3-2.3-2.3c-1.2,0-2.3,0.9-2.3,2.3
		C117.2,89.4,118.3,90.3,119.6,90.3z"/>
	<path class="st2" d="M137.3,91.1c-0.5,0.8-1.5,1.3-2.6,1.3c-2.2,0-4.1-1.7-4.1-4.4c0-2.7,1.9-4.4,4.1-4.4c1.1,0,2.2,0.5,2.6,1.3
		v-5.7h2.2v13h-2.2V91.1z M135,85.8c-1.2,0-2.2,0.9-2.2,2.3c0,1.4,1,2.3,2.2,2.3c1.2,0,2.3-0.9,2.3-2.3
		C137.2,86.6,136.1,85.8,135,85.8z"/>
	<path class="st2" d="M148.3,91.2c-0.5,0.9-1.8,1.2-2.6,1.2c-2.2,0-4.3-1.7-4.3-4.4c0-2.7,2.1-4.4,4.3-4.4c0.8,0,2,0.3,2.6,1.2v-1
		h2.2v8.4h-2.2V91.2z M146,90.3c1.2,0,2.3-0.8,2.3-2.3c0-1.5-1.2-2.3-2.3-2.3c-1.2,0-2.3,0.9-2.3,2.3
		C143.7,89.4,144.8,90.3,146,90.3z"/>
	<path class="st2" d="M155.6,96.4h-2.3l1.9-4.8l-3.3-7.8h2.3l2.1,5.2l2.1-5.2h2.3L155.6,96.4z"/>
	<path class="st2" d="M162.8,89.7c0.8,0,1.4,0.6,1.4,1.4c0,0.8-0.6,1.4-1.4,1.4c-0.8,0-1.4-0.6-1.4-1.4
		C161.4,90.3,162,89.7,162.8,89.7z"/>
</g>
</svg>
