<?xml version="1.0" encoding="utf-8"?>
<!-- Generator: Adobe Illustrator 21.0.0, SVG Export Plug-In . SVG Version: 6.00 Build 0)  -->
<svg version="1.1" id="Layer_1" xmlns="http://www.w3.org/2000/svg" xmlns:xlink="http://www.w3.org/1999/xlink" x="0px" y="0px"
	 viewBox="0 0 165 75" style="enable-background:new 0 0 165 75;" xml:space="preserve">
<style type="text/css">
	.st0{fill:#8000FF;}
	.st1{fill:#4056F4;}
</style>
<path class="st0" d="M3.8,33.8V2.5H16c9,0,14.1,6.8,14.1,15.7C30.1,27,25,33.8,16,33.8H3.8z M10.4,27.8H16c5,0,7.5-4.4,7.5-9.5
	c0-5.2-2.5-9.6-7.5-9.6h-5.6C10.4,8.6,10.4,27.8,10.4,27.8z"/>
<path class="st0" d="M72.1,2.5h23.5v6h-8.4v25.2h-6.7V8.6h-8.4V2.5z"/>
<path class="st1" d="M3.8,71.9V40.8H16c9,0,14.1,6.8,14.1,15.7C30.1,65.3,25,72,16,72L3.8,71.9L3.8,71.9z M10.4,65.9H16
	c5,0,7.5-4.4,7.5-9.5c0-5.2-2.5-9.6-7.5-9.6h-5.6C10.4,46.9,10.4,65.9,10.4,65.9z"/>
<path class="st1" d="M111,71.9V40.8h12.2c9,0,14.1,6.8,14.1,15.7c0,8.8-5.1,15.5-14.1,15.5L111,71.9L111,71.9z M117.6,65.9h5.6
	c5,0,7.5-4.4,7.5-9.5c0-5.2-2.5-9.6-7.5-9.6h-5.6C117.6,46.8,117.6,65.9,117.6,65.9z"/>
<path class="st1" d="M142.9,40.8h6.6V66h11.7v5.9h-18.3V40.8z"/>
<circle class="st0" cx="51.5" cy="18.8" r="16.1"/>
<circle class="st1" cx="51.5" cy="56.4" r="16.1"/>
<circle class="st1" cx="88.9" cy="56.4" r="16.1"/>
</svg>
