<?xml version="1.0" encoding="utf-8"?>
<!-- Generator: Adobe Illustrator 21.0.0, SVG Export Plug-In . SVG Version: 6.00 Build 0)  -->
<svg version="1.1" id="Layer_1" xmlns="http://www.w3.org/2000/svg" xmlns:xlink="http://www.w3.org/1999/xlink" x="0px" y="0px"
	 viewBox="0 0 165 75" style="enable-background:new 0 0 165 75;" xml:space="preserve">
<style type="text/css">
	.st0{fill:#FFFFFF;}
</style>
<path class="st0" d="M3.8,33.8V2.5H16c9,0,14.1,6.8,14.1,15.7C30.1,27,25,33.8,16,33.8H3.8z M10.4,27.8H16c5,0,7.5-4.4,7.5-9.5
	c0-5.2-2.5-9.6-7.5-9.6h-5.6C10.4,8.6,10.4,27.8,10.4,27.8z"/>
<path class="st0" d="M72.1,2.5h23.5v6h-8.4v25.2h-6.7V8.6h-8.4V2.5z"/>
<path class="st0" d="M3.8,71.9V40.8H16c9,0,14.1,6.8,14.1,15.7C30.1,65.3,25,72,16,72L3.8,71.9L3.8,71.9z M10.4,65.9H16
	c5,0,7.5-4.4,7.5-9.5c0-5.2-2.5-9.6-7.5-9.6h-5.6C10.4,46.9,10.4,65.9,10.4,65.9z"/>
<path class="st0" d="M111,71.9V40.8h12.2c9,0,14.1,6.8,14.1,15.7c0,8.8-5.1,15.5-14.1,15.5L111,71.9L111,71.9z M117.6,65.9h5.6
	c5,0,7.5-4.4,7.5-9.5c0-5.2-2.5-9.6-7.5-9.6h-5.6C117.6,46.8,117.6,65.9,117.6,65.9z"/>
<path class="st0" d="M142.9,40.8h6.6V66h11.7v5.9h-18.3V40.8z"/>
<circle class="st0" cx="51.5" cy="18.8" r="16.1"/>
<circle class="st0" cx="51.5" cy="56.4" r="16.1"/>
<circle class="st0" cx="88.9" cy="56.4" r="16.1"/>
<path class="st0" d="M3.8,34V2.7H16c9,0,14.1,6.8,14.1,15.7C30.1,27.2,25,34,16,34H3.8z M10.4,28H16c5,0,7.5-4.4,7.5-9.5
	c0-5.2-2.5-9.6-7.5-9.6h-5.6C10.4,8.7,10.4,28,10.4,28z"/>
<path class="st0" d="M72.1,2.7h23.5v6h-8.4v25.2h-6.7V8.7h-8.4V2.7z"/>
<path class="st0" d="M3.8,72V40.9H16c9,0,14.1,6.8,14.1,15.7c0,8.8-5.1,15.5-14.1,15.5L3.8,72L3.8,72z M10.4,66H16
	c5,0,7.5-4.4,7.5-9.5c0-5.2-2.5-9.6-7.5-9.6h-5.6C10.4,47,10.4,66,10.4,66z"/>
<path class="st0" d="M111,72V40.9h12.2c9,0,14.1,6.8,14.1,15.7c0,8.8-5.1,15.5-14.1,15.5L111,72L111,72z M117.6,66h5.6
	c5,0,7.5-4.4,7.5-9.5c0-5.2-2.5-9.6-7.5-9.6h-5.6C117.6,47,117.6,66,117.6,66z"/>
<path class="st0" d="M142.9,41h6.6v25.2h11.7V72h-18.3V41z"/>
<circle class="st0" cx="51.5" cy="19" r="16.1"/>
<circle class="st0" cx="51.5" cy="56.5" r="16.1"/>
<circle class="st0" cx="88.9" cy="56.5" r="16.1"/>
<path class="st0" d="M152.1,23.9c-5.4,0-9.9-4.4-9.9-9.9c0-5.4,4.4-9.9,9.9-9.9c5.4,0,9.9,4.4,9.9,9.9
	C162,19.4,157.5,23.9,152.1,23.9L152.1,23.9z"/>
<path class="st0" d="M133.2,27.8c-1.3-1.3-1.2-3.4,0-4.7c1.3-1.2,3.4-1.2,4.7,0c1.2,1.3,1.2,3.4,0,4.7c-0.6,0.6-1.5,0.9-2.4,0.9
	C134.7,28.8,133.8,28.5,133.2,27.8L133.2,27.8z"/>
<path class="st0" d="M123.3,36.8c-1.3-1.3-1.2-3.4,0-4.7c1.3-1.2,3.4-1.2,4.7,0c1.2,1.3,1.2,3.4,0,4.7c-0.6,0.6-1.5,0.9-2.4,0.9
	C124.7,37.6,123.9,37.3,123.3,36.8L123.3,36.8z"/>
<path class="st0" d="M110.1,17.9c-1.3-1.3-1.2-3.4,0-4.7c1.3-1.2,3.4-1.2,4.7,0c1.2,1.3,1.2,3.4,0,4.7c-0.6,0.6-1.5,0.9-2.4,0.9
	C111.5,18.9,110.7,18.6,110.1,17.9L110.1,17.9z"/>
<path class="st0" d="M116.6,27.8c-1.3-1.3-1.2-3.4,0-4.7c1.3-1.2,3.4-1.2,4.7,0c1.2,1.3,1.2,3.4,0,4.7c-0.6,0.6-1.5,0.9-2.4,0.9
	C118.2,28.8,117.2,28.5,116.6,27.8L116.6,27.8z"/>
<path class="st0" d="M100.1,8c-1.3-1.3-1.2-3.4,0-4.7c1.3-1.2,3.4-1.2,4.7,0c1.2,1.3,1.2,3.4,0,4.7c-0.6,0.6-1.5,0.9-2.4,0.9
	C101.6,9.1,100.7,8.7,100.1,8L100.1,8z"/>
</svg>
